<svg xmlns="http://www.w3.org/2000/svg" xmlns:xlink="http://www.w3.org/1999/xlink" width="15" height="15" viewBox="0 0 15 15">
    <defs>
        <path id="a" d="M15 6.388c0 1.411-.52 2.68-1.607 3.93-1.574 1.9-5.093 4.217-5.893 4.57-.8.354-.682-.227-.649-.425l.107-.674c.025-.201.051-.513-.024-.711-.085-.218-.418-.332-.661-.388C2.668 12.191 0 9.547 0 6.388 0 2.866 3.365 0 7.5 0S15 2.866 15 6.388zM5.976 4.686H5.45a.15.15 0 0 0-.146.153v3.43a.15.15 0 0 0 .146.153h.526a.15.15 0 0 0 .146-.153V4.84a.15.15 0 0 0-.146-.153zm3.622 0h-.526a.15.15 0 0 0-.145.153v2.038L7.43 4.754l-.012-.016-.002-.002c-.004-.003-.005-.007-.009-.009l-.003-.001c-.002-.002-.005-.006-.009-.008l-.003-.003-.007-.006-.005-.003L7.37 4.7 7.366 4.7l-.008-.004-.006-.002-.008-.003c-.002 0-.004 0-.005-.002l-.009-.002h-.007c-.002 0-.005 0-.007-.002H6.78a.15.15 0 0 0-.146.153v3.43a.15.15 0 0 0 .146.154h.525a.15.15 0 0 0 .146-.153V6.23L8.95 8.356a.155.155 0 0 0 .04.04l.008.005c.002 0 .003.002.003.002.002.001.005.001.007.003l.007.004.005.002c.004.001.007.001.01.003h.002a.128.128 0 0 0 .038.006h.525a.15.15 0 0 0 .146-.153v-3.43a.144.144 0 0 0-.142-.152zm-4.89 2.877h-1.43V4.84a.15.15 0 0 0-.145-.153h-.525a.15.15 0 0 0-.146.153v3.43c0 .042.015.08.04.107l.003.001.001.002a.14.14 0 0 0 .102.043h2.1a.15.15 0 0 0 .147-.153v-.551c0-.086-.066-.155-.146-.155zm7.794-2.018a.15.15 0 0 0 .146-.153v-.551a.15.15 0 0 0-.146-.153h-2.1a.14.14 0 0 0-.102.043l-.002.002c0 .002-.002.002-.002.003a.154.154 0 0 0-.04.107V8.27c0 .042.015.08.04.106l.002.002.002.002a.14.14 0 0 0 .101.043h2.101a.15.15 0 0 0 .146-.153V7.72a.15.15 0 0 0-.146-.153h-1.43v-.58h1.43a.15.15 0 0 0 .146-.154v-.55a.15.15 0 0 0-.146-.154h-1.43v-.58h1.43v-.004z"/>
    </defs>
    <g fill="none" fill-rule="evenodd">
        <mask id="b" fill="#fff">
            <use xlink:href="#a"/>
        </mask>
        <use fill="#FFF" fill-rule="nonzero" xlink:href="#a"/>
        <g fill="#17181A" mask="url(#b)">
            <path d="M-3-3h21v21H-3z"/>
        </g>
    </g>
</svg>
