<?xml version="1.0" encoding="UTF-8"?>
<svg width="1200px" height="600px" viewBox="0 0 1200 600" version="1.1" xmlns="http://www.w3.org/2000/svg" xmlns:xlink="http://www.w3.org/1999/xlink">
    <!-- Generator: Sketch 52.6 (67491) - http://www.bohemiancoding.com/sketch -->
    <title>Artboard</title>
    <desc>Created with Sketch.</desc>
    <g id="Artboard" stroke="none" stroke-width="1" fill="none" fill-rule="evenodd">
        <rect fill="#DFE2E7" x="0" y="0" width="1200" height="600"></rect>
        <path d="M395.6585,332 L395.6585,267.62 L408.7955,267.62 L427.5005,301.898 L433.9385,315.818 L434.3735,315.818 C433.6775,309.119 432.7205,300.593 432.7205,293.285 L432.7205,267.62 L444.9005,267.62 L444.9005,332 L431.8505,332 L413.2325,297.548 L406.7075,283.715 L406.2725,283.715 C406.8815,290.675 407.8385,298.766 407.8385,306.161 L407.8385,332 L395.6585,332 Z M486.3995,333.218 C469.3475,333.218 457.6025,320.429 457.6025,299.549 C457.6025,278.582 469.3475,266.402 486.3995,266.402 C503.4515,266.402 515.1965,278.669 515.1965,299.549 C515.1965,320.429 503.4515,333.218 486.3995,333.218 Z M486.3995,322.082 C495.9695,322.082 502.0595,313.295 502.0595,299.549 C502.0595,285.716 495.9695,277.451 486.3995,277.451 C476.8295,277.451 470.7395,285.716 470.7395,299.549 C470.7395,313.295 476.8295,322.082 486.3995,322.082 Z M547.5605,332 L547.5605,267.62 L560.4365,267.62 L560.4365,332 L547.5605,332 Z M576.2705,332 L576.2705,267.62 L590.5385,267.62 L601.5005,297.722 C602.8925,301.724 604.1105,305.987 605.4155,310.163 L605.8505,310.163 C607.2425,305.987 608.3735,301.724 609.7655,297.722 L620.4665,267.62 L634.7345,267.62 L634.7345,332 L622.9895,332 L622.9895,305.117 C622.9895,299.027 623.9465,290.066 624.5555,283.976 L624.2075,283.976 L618.9875,299.114 L609.0695,326.171 L601.6745,326.171 L591.6695,299.114 L586.5365,283.976 L586.1885,283.976 C586.7975,290.066 587.8415,299.027 587.8415,305.117 L587.8415,332 L576.2705,332 Z M662.6615,305.465 L677.9735,305.465 L676.0595,298.418 C674.0585,291.719 672.3185,284.324 670.4045,277.364 L670.0565,277.364 C668.4035,284.411 666.4895,291.719 664.5755,298.418 L662.6615,305.465 Z M685.2815,332 L680.7575,315.47 L659.8775,315.47 L655.3535,332 L642.3035,332 L662.9225,267.62 L678.0605,267.62 L698.7665,332 L685.2815,332 Z M732.9575,333.218 C715.3835,333.218 702.0725,321.56 702.0725,300.071 C702.0725,278.843 715.8185,266.402 732.9575,266.402 C742.2665,266.402 748.7045,270.404 752.8805,274.667 L746.0075,282.845 C742.8755,279.8 739.2215,277.451 733.3925,277.451 C722.6915,277.451 715.2095,285.803 715.2095,299.636 C715.2095,313.643 721.6475,322.082 734.2625,322.082 C737.3945,322.082 740.5265,321.212 742.3535,319.646 L742.3535,306.944 L730.9565,306.944 L730.9565,296.417 L753.8375,296.417 L753.8375,325.475 C749.4875,329.738 741.9185,333.218 732.9575,333.218 Z M767.6705,332 L767.6705,267.62 L807.1685,267.62 L807.1685,278.321 L780.5465,278.321 L780.5465,293.198 L803.1665,293.198 L803.1665,303.986 L780.5465,303.986 L780.5465,321.212 L808.1255,321.212 L808.1255,332 L767.6705,332 Z" id="NO-IMAGE" fill="#333333"></path>
    </g>
</svg>