<svg xmlns="http://www.w3.org/2000/svg" xmlns:xlink="http://www.w3.org/1999/xlink" width="24" height="19" viewBox="0 0 24 19">
    <defs>
        <path id="a" d="M7.325 19c8.799 0 13.614-7.312 13.614-13.642 0-.206 0-.412-.01-.617a9.76 9.76 0 0 0 2.39-2.488 9.682 9.682 0 0 1-2.753.758A4.822 4.822 0 0 0 22.674.355a9.506 9.506 0 0 1-3.042 1.16A4.771 4.771 0 0 0 16.142 0a4.796 4.796 0 0 0-4.786 4.797c0 .374.046.738.121 1.094C7.502 5.694 3.975 3.778 1.614.879A4.803 4.803 0 0 0 .97 3.29a4.81 4.81 0 0 0 2.128 3.993 4.832 4.832 0 0 1-2.165-.598v.065a4.802 4.802 0 0 0 3.835 4.703 4.656 4.656 0 0 1-1.26.169c-.307 0-.606-.029-.895-.085a4.786 4.786 0 0 0 4.47 3.33 9.584 9.584 0 0 1-5.945 2.056c-.382 0-.765-.018-1.138-.065A13.59 13.59 0 0 0 7.325 19"/>
    </defs>
    <g fill="none" fill-rule="evenodd">
        <mask id="b" fill="#fff">
            <use xlink:href="#a"/>
        </mask>
        <use fill="#FFF" fill-rule="nonzero" xlink:href="#a"/>
        <g fill="#17181A" mask="url(#b)">
            <path d="M-.182-.773h24v20h-24z"/>
        </g>
    </g>
</svg>
